<?xml version="1.0" encoding="iso-8859-1"?>
<!-- Uploaded to: SVG Repo, www.svgrepo.com, Generator: SVG Repo Mixer Tools -->
<svg height="800px" width="800px" version="1.1" id="Layer_1" xmlns="http://www.w3.org/2000/svg" xmlns:xlink="http://www.w3.org/1999/xlink" 
	 viewBox="0 0 512 512" xml:space="preserve">
<polygon style="fill:#AA8B65;" points="458.072,40.401 414.161,78.26 414.161,0 91.595,0 91.595,303.399 0.002,256.483 
	0.002,337.187 91.595,394.178 92.31,511.996 414.876,511.995 414.161,192.162 511.998,94.326 "/>
<g>
	<path style="opacity:0.3;fill:#564531;enable-background:new    ;" d="M414.158,192.166V78.263V0.004h-46.333v40.724V154.63
		l0.509,227.48c0.114,50.972-41.175,92.354-92.148,92.354H92.078L92.306,512l322.567-0.001L414.158,192.166z"/>
	<path style="fill:#564531;" d="M167.271,0.532v140.577c0,4.329-3.508,7.837-7.837,7.837c-4.329,0-7.837-3.508-7.837-7.837V0.532
		H167.271z"/>
	<path style="fill:#564531;" d="M283.859,269.99c-0.819,0-1.596-0.033-2.326-0.092c-18.086-1.429-34.354-19.549-40.483-45.089
		c-1.01-4.208,1.583-8.439,5.792-9.449c4.21-1.006,8.439,1.584,9.449,5.792c4.469,18.623,15.357,32.243,26.478,33.122
		c9.632,0.776,19.297-8.772,26.51-26.156c12.428-29.952,3.079-81.488-12.707-112.06c-5.72-11.077-10.21-14.958-11.848-15.755
		c-10.911,6.478-25.729,44.222-32.905,69.458c-1.184,4.161-5.52,6.573-9.68,5.395c-4.163-1.183-6.58-5.516-5.397-9.68
		c3.248-11.43,20.511-68.988,41.533-79.498c3.516-1.763,10.709-3.514,19.326,4.516c10.942,10.198,22.018,34.589,28.22,62.14
		c4.169,18.525,9.446,53.745-2.067,81.491C311.093,264.644,294.156,269.99,283.859,269.99z"/>
	<path style="fill:#564531;" d="M214.263,406.222c-0.427,0-0.861-0.034-1.298-0.108c-4.268-0.713-7.153-4.75-6.442-9.019
		c0.062-0.372,6.045-38.706-14.637-59.389c-24.736-24.734-50.581-88.924-51.67-91.645c-1.607-4.019,0.347-8.579,4.366-10.186
		c4.012-1.606,8.579,0.345,10.187,4.365c0.255,0.636,25.737,63.921,48.201,86.384c26.429,26.43,19.329,71.158,19.015,73.049
		C221.344,403.506,218.025,406.222,214.263,406.222z"/>
	<path style="fill:#564531;" d="M304.116,511.996V312.082c0-2.154,0.886-4.211,2.449-5.69c0.383-0.365,38.756-37.176,43.752-75.648
		c0.557-4.292,4.489-7.329,8.78-6.763c4.291,0.557,7.319,4.489,6.763,8.78c-4.987,38.409-36.835,73.21-46.07,82.592v196.642H304.116
		z"/>
	<path style="fill:#564531;" d="M362.193,511.996v-144.55c0-4.329,3.508-7.837,7.837-7.837s7.837,3.508,7.837,7.837v144.55H362.193z
		"/>
	<path style="fill:#564531;" d="M375.641,0.004v140.577c0,4.329-3.508,7.837-7.837,7.837s-7.837-3.508-7.837-7.837V0.004H375.641z"
		/>
	<path style="fill:#564531;" d="M291.413,0.532v44.036c0,4.329-3.508,7.837-7.837,7.837s-7.837-3.508-7.837-7.837V0.532H291.413z"/>
	<path style="fill:#564531;" d="M126.084,185.081c-4.329,0-7.837-3.508-7.837-7.837v-84.91c0-4.329,3.508-7.837,7.837-7.837
		c4.329,0,7.837,3.508,7.837,7.837v84.91C133.92,181.573,130.413,185.081,126.084,185.081z"/>
	<path style="fill:#564531;" d="M139.538,511.926V372.394c0-4.394,3.561-7.956,7.956-7.956c4.395,0,7.956,3.561,7.956,7.956v139.532
		"/>
	<path style="fill:#564531;" d="M193.842,511.991v-67.219c0-4.329,3.508-7.837,7.837-7.837c4.329,0,7.837,3.508,7.837,7.837v67.219"
		/>
	<path style="fill:#564531;" d="M223.064,0.532v100.165c0,0.586-0.066,1.171-0.196,1.743
		c-0.342,1.497-33.309,150.015,35.941,176.603c4.04,1.552,6.058,6.084,4.507,10.125c-1.197,3.116-4.168,5.029-7.318,5.029
		c-0.934,0-1.883-0.168-2.808-0.522c-79.631-30.573-48.941-179.579-45.801-193.844V0.532H223.064z"/>
	<path style="fill:#564531;" d="M248.163,511.996v-167.39c0-4.329,3.508-7.837,7.837-7.837c4.329,0,7.837,3.508,7.837,7.837v167.39
		H248.163z"/>
	<path style="fill:#564531;" d="M472.754,55.081c-5.607,15.482-20.46,59.867-23.643,102.131l-16.31,16.273
		c0-60.381,26.706-128.154,27.807-130.55L472.754,55.081z"/>
	<polygon style="opacity:0.41;fill:#564531;enable-background:new    ;" points="55.618,285.005 55.618,371.826 91.6,394.214 
		91.6,303.435 	"/>
	<path style="fill:#564531;" d="M91.6,326.889c-0.349,0-0.701,0.015-1.056,0.063c-19.949,2.72-68.054-34.729-90.542-58.978v21.704
		c20.859,19.201,61.944,53.064,88.678,53.064c0.988,0,1.96-0.062,2.919-0.156v-15.697H91.6z"/>
	<polygon style="opacity:0.4;fill:#564531;enable-background:new    ;" points="441.37,54.801 414.195,78.26 414.161,192.162 
		441.37,164.937 	"/>
</g>
</svg>